<?xml version="1.0" standalone="no"?>
<!DOCTYPE svg PUBLIC "-//W3C//DTD SVG 20010904//EN"
 "http://www.w3.org/TR/2001/REC-SVG-20010904/DTD/svg10.dtd">
<svg version="1.0" xmlns="http://www.w3.org/2000/svg"
 width="16.000000pt" height="16.000000pt" viewBox="0 0 16.000000 16.000000"
 preserveAspectRatio="xMidYMid meet">
<metadata>
Created by potrace 1.11, written by Peter Selinger 2001-2013
</metadata>
<g transform="translate(0.000000,16.000000) scale(0.005333,-0.005333)"
fill="#000000" stroke="none">
<path d="M625 2883 c-273 -58 -484 -277 -543 -563 -4 -19 -7 -393 -7 -830 0
-895 -4 -845 77 -1010 34 -68 60 -102 128 -171 71 -71 101 -93 180 -132 159
-77 129 -75 1055 -76 789 -1 824 0 905 20 269 64 468 269 526 542 13 61 15
188 15 827 0 745 -1 791 -22 880 -58 245 -255 441 -509 509 -72 19 -110 19
-905 19 -699 0 -841 -2 -900 -15z"/>
</g>
</svg>
