<?xml version="1.0" standalone="no"?>
<!DOCTYPE svg PUBLIC "-//W3C//DTD SVG 20010904//EN"
 "http://www.w3.org/TR/2001/REC-SVG-20010904/DTD/svg10.dtd">
<svg version="1.0" xmlns="http://www.w3.org/2000/svg"
 width="1024.000000pt" height="1024.000000pt" viewBox="0 0 1024.000000 1024.000000"
 preserveAspectRatio="xMidYMid meet">
<metadata>
Created by potrace 1.11, written by Peter Selinger 2001-2013
</metadata>
<g transform="translate(0.000000,1024.000000) scale(0.100000,-0.100000)"
fill="#000000" stroke="none">
<path d="M9831 9922 c-32 -18 -66 -60 -148 -183 -177 -263 -432 -498 -743
-684 -94 -57 -225 -126 -235 -124 -4 0 -17 -6 -30 -15 -33 -22 -201 -88 -318
-125 -94 -29 -310 -78 -352 -79 -76 -3 -333 -1 -392 3 -106 6 -191 24 -245 51
-82 41 -79 30 15 -68 114 -120 159 -168 217 -238 30 -35 61 -71 69 -79 7 -8
39 -49 70 -90 31 -42 59 -77 64 -79 4 -2 7 -10 7 -17 0 -7 3 -15 8 -17 14 -6
215 -318 205 -318 -3 0 1 -8 10 -17 21 -24 143 -264 196 -388 48 -112 98 -214
113 -232 7 -9 19 -9 51 2 304 96 596 271 817 487 80 78 172 182 184 208 5 11
12 20 17 20 8 0 149 215 149 229 0 5 4 11 8 13 9 4 109 205 146 295 101 245
197 630 233 928 2 22 6 54 8 70 25 185 24 371 -1 414 -27 45 -76 58 -123 33z"/>
<path d="M403 9835 c-82 -35 -88 -186 -23 -575 11 -63 24 -130 29 -148 5 -18
10 -35 10 -37 2 -24 31 -141 53 -220 11 -38 20 -71 20 -72 -1 -2 5 -18 14 -38
8 -19 11 -35 8 -35 -4 0 -2 -6 3 -12 6 -7 20 -44 33 -83 12 -38 26 -74 31 -80
5 -5 9 -15 9 -23 0 -11 24 -61 134 -279 6 -13 14 -23 19 -23 4 0 7 -5 7 -11 0
-34 198 -284 316 -401 236 -232 491 -386 842 -508 l83 -29 11 27 c6 15 16 41
23 57 29 68 44 106 45 113 2 11 230 455 240 467 4 6 23 37 41 70 78 145 231
345 403 529 80 86 171 189 180 204 10 17 11 17 -84 -16 -154 -53 -426 -63
-630 -22 -30 6 -66 13 -80 16 -231 44 -571 188 -805 342 -279 182 -459 353
-695 656 -99 127 -163 163 -237 131z"/>
<path d="M5039 9266 c-2 -2 -40 -7 -84 -10 -101 -9 -162 -15 -194 -21 -13 -2
-45 -7 -70 -11 -153 -22 -477 -113 -606 -170 -22 -10 -42 -18 -45 -19 -34 -6
-399 -201 -420 -225 -3 -3 -25 -18 -50 -34 -80 -51 -230 -170 -323 -256 -243
-223 -445 -470 -598 -730 -18 -30 -35 -57 -38 -60 -5 -4 -55 -97 -118 -220
-29 -56 -103 -219 -103 -227 0 -3 -6 -19 -14 -36 -73 -166 -217 -633 -242
-787 -2 -14 -7 -36 -10 -50 -10 -41 -13 -60 -18 -104 -3 -22 -8 -52 -11 -65
-14 -69 -21 -247 -12 -292 8 -43 64 -72 222 -114 55 -15 107 -29 115 -32 8 -3
24 -7 35 -8 11 -2 56 -11 100 -20 44 -9 91 -19 105 -21 14 -2 48 -9 75 -14 28
-5 66 -12 85 -15 90 -14 219 -34 260 -39 25 -3 56 -8 70 -10 14 -3 86 -12 160
-21 74 -9 146 -18 160 -20 14 -2 58 -7 99 -10 41 -4 82 -8 91 -10 9 -2 55 -6
101 -9 46 -4 98 -8 114 -11 17 -2 71 -6 120 -10 50 -3 110 -8 135 -10 311 -28
1691 -28 2130 0 72 4 283 22 355 29 22 2 74 7 115 11 41 3 86 8 100 10 14 2
53 7 88 10 35 4 71 8 80 10 9 1 46 6 82 10 36 4 68 9 71 10 3 2 37 7 75 10 38
4 71 8 74 10 3 2 26 6 50 10 399 55 751 152 820 224 23 24 27 35 24 77 -4 70
-13 147 -29 239 -3 17 -8 44 -10 61 -2 16 -18 97 -35 180 -113 542 -302 1015
-573 1434 -20 30 -40 60 -44 65 -5 6 -29 39 -53 75 -25 36 -48 67 -51 70 -3 3
-23 28 -44 55 -20 28 -40 52 -44 55 -3 3 -24 28 -46 55 -37 47 -280 293 -321
325 -10 9 -50 40 -89 71 -195 155 -433 293 -655 379 -47 18 -94 36 -105 41
-21 9 -183 57 -212 64 -33 7 -158 36 -173 39 -8 2 -51 9 -95 16 -44 7 -87 13
-95 15 -8 1 -49 6 -90 10 -41 4 -91 9 -110 11 -49 6 -277 14 -281 10z"/>
<path d="M7718 5476 c-1 -2 -31 -7 -66 -10 -34 -4 -86 -11 -115 -17 -29 -5
-68 -12 -87 -15 -19 -3 -73 -12 -120 -21 -47 -8 -96 -17 -110 -18 -14 -1 -34
-5 -45 -8 -11 -3 -40 -9 -65 -12 -25 -3 -52 -8 -60 -10 -8 -2 -31 -7 -50 -10
-66 -10 -130 -27 -135 -36 -3 -4 5 -13 17 -20 41 -21 85 -79 133 -178 80 -162
80 -158 80 -496 0 -337 -4 -393 -35 -485 -110 -326 -316 -505 -590 -514 -193
-6 -408 58 -619 186 -34 21 -65 38 -67 38 -3 0 -51 31 -107 69 l-103 69 -29
-47 c-63 -103 -182 -189 -305 -221 -73 -20 -206 -15 -274 9 -88 31 -135 62
-204 135 -34 36 -64 66 -66 66 -3 0 -54 -33 -113 -72 -112 -75 -134 -88 -243
-143 -126 -64 -242 -107 -319 -120 -19 -3 -38 -8 -43 -11 -18 -11 -210 -13
-260 -3 -63 13 -137 38 -158 54 -8 6 -28 17 -45 25 -16 8 -61 47 -100 85 -230
231 -335 724 -250 1174 30 155 110 326 172 366 13 9 21 20 18 24 -9 16 -94 26
-290 36 -129 7 -160 10 -215 18 -19 3 -82 13 -140 21 -149 23 -243 42 -296 63
-14 5 -16 0 -11 -38 5 -37 22 -121 43 -219 24 -112 36 -169 39 -190 2 -14 10
-63 19 -110 9 -47 18 -103 21 -125 3 -22 10 -62 15 -90 8 -48 21 -141 25 -196
2 -15 5 -44 9 -65 10 -71 25 -240 40 -454 4 -47 9 -114 11 -150 3 -36 7 -111
10 -166 2 -56 7 -135 9 -175 6 -81 16 -239 21 -334 8 -141 33 -389 50 -500 44
-292 137 -547 274 -754 75 -114 79 -118 216 -256 180 -180 375 -312 684 -462
95 -47 179 -86 185 -87 6 -1 28 -10 50 -19 21 -9 40 -17 43 -17 2 0 23 -9 46
-19 38 -17 350 -127 387 -136 8 -2 78 -23 155 -45 397 -116 435 -117 795 -9
492 148 833 315 1136 556 256 204 460 456 604 748 53 108 135 310 145 359 3
11 11 40 19 65 13 41 43 151 51 191 18 85 45 234 50 270 3 25 8 52 10 60 2 8
7 42 10 75 3 33 7 83 10 110 6 62 13 136 20 240 3 44 7 103 10 130 2 28 7 109
10 180 4 72 8 159 11 195 2 36 6 121 9 190 3 69 7 154 10 190 2 36 7 124 10
195 4 72 8 146 10 165 2 19 6 82 10 140 5 98 8 127 20 248 17 170 23 210 35
267 5 22 10 45 10 51 0 11 -24 26 -32 20z m-2396 -2260 c88 -5 192 -30 238
-57 9 -5 -162 -8 -410 -8 -386 0 -421 2 -385 15 22 8 60 20 85 25 25 6 54 13
65 15 28 7 233 19 275 17 19 -1 79 -4 132 -7z"/>
<path d="M6257 5195 c-1 -2 -47 -6 -101 -9 -55 -4 -102 -9 -105 -11 -3 -1 -23
-6 -44 -9 -21 -3 -47 -11 -58 -16 -10 -6 -19 -8 -19 -6 0 12 -157 -67 -195
-98 -69 -57 -185 -246 -185 -303 0 -33 31 -38 250 -38 310 0 453 24 625 104
122 58 175 117 200 226 11 46 11 82 0 112 -8 24 -113 44 -240 47 -69 1 -126 2
-128 1z"/>
<path d="M3750 5162 c-64 -8 -131 -34 -139 -53 -10 -29 3 -129 24 -172 21 -46
70 -97 121 -129 40 -25 161 -76 192 -81 9 -1 22 -5 27 -8 6 -4 26 -9 45 -13
19 -3 46 -8 60 -11 22 -4 70 -9 191 -20 115 -11 361 -4 407 10 54 18 -96 282
-201 352 -51 34 -184 89 -238 98 -19 3 -45 8 -59 10 -75 15 -359 26 -430 17z"/>
</g>
</svg>
